HIERARCHY
ROOT Hips
{
	OFFSET 0.000000 0.000000 0.000000
	CHANNELS 6 Xposition Yposition Zposition Xrotation Yrotation Zrotation
	JOINT LeftUpLeg_virtual
	{
		OFFSET 0.000000 0.000000 0.000000
		CHANNELS 3 Xrotation Yrotation Zrotation
		JOINT LeftUpLeg
		{
			OFFSET 11.394100 -6.187798 -0.413800
			CHANNELS 3 Xrotation Yrotation Zrotation
			JOINT LeftLeg
			{
				OFFSET 0.430247 -32.302673 3.732800
				CHANNELS 3 Xrotation Yrotation Zrotation
				JOINT LeftFoot
				{
					OFFSET -0.430247 -48.264931 -6.423300
					CHANNELS 3 Xrotation Yrotation Zrotation
					JOINT LeftToeBase
					{
						OFFSET 4.230900 -16.068199 23.438400
						CHANNELS 3 Xrotation Yrotation Zrotation
						JOINT LeftToe_End
						{
							OFFSET 4.510700 0.695400 19.974600
							CHANNELS 3 Xrotation Yrotation Zrotation
							End Site
							{
								OFFSET 0 0 0
							}
						}
					}
				}
			}
		}
	}
	JOINT RightUpLeg_virtual
	{
		OFFSET 0.000000 0.000000 0.000000
		CHANNELS 3 Xrotation Yrotation Zrotation
		JOINT RightUpLeg
		{
			OFFSET -11.333700 -6.187798 -0.413800
			CHANNELS 3 Xrotation Yrotation Zrotation
			JOINT RightLeg
			{
				OFFSET -0.430392 -32.302628 3.733000
				CHANNELS 3 Xrotation Yrotation Zrotation
				JOINT RightFoot
				{
					OFFSET 0.430392 -48.264973 -6.423500
					CHANNELS 3 Xrotation Yrotation Zrotation
					JOINT RightToeBase
					{
						OFFSET -4.230900 -16.068199 23.438400
						CHANNELS 3 Xrotation Yrotation Zrotation
						JOINT RightToe_End
						{
							OFFSET -4.510700 0.695400 19.974600
							CHANNELS 3 Xrotation Yrotation Zrotation
							End Site
							{
								OFFSET 0 0 0
							}
						}
					}
				}
			}
		}
	}
	JOINT Spine_virtual
	{
		OFFSET 0.000000 0.000000 0.000000
		CHANNELS 3 Xrotation Yrotation Zrotation
		JOINT Spine
		{
			OFFSET -0.002400 12.777504 0.315300
			CHANNELS 3 Xrotation Yrotation Zrotation
			JOINT Spine1
			{
				OFFSET -0.002067 5.816869 0.032633
				CHANNELS 3 Xrotation Yrotation Zrotation
				JOINT Spine1_split
				{
					OFFSET -0.002067 5.816869 0.032633
					CHANNELS 3 Xrotation Yrotation Zrotation
					JOINT Spine2
					{
						OFFSET -0.002067 5.816869 0.032633
						CHANNELS 3 Xrotation Yrotation Zrotation
						JOINT Neck_virtual
						{
							OFFSET 0.000000 0.000000 0.000000
							CHANNELS 3 Xrotation Yrotation Zrotation
							JOINT Neck
							{
								OFFSET -0.003700 21.199493 -0.826900
								CHANNELS 3 Xrotation Yrotation Zrotation
								JOINT Head
								{
									OFFSET 0.000000 20.442200 4.834800
									CHANNELS 3 Xrotation Yrotation Zrotation
									JOINT HeadTop_End
									{
										OFFSET 0.000000 34.668396 4.968400
										CHANNELS 3 Xrotation Yrotation Zrotation
										End Site
										{
											OFFSET 0 0 0
										}
									}
								}
							}
						}
						JOINT LeftShoulder_virtual
						{
							OFFSET 0.000000 0.000000 0.000000
							CHANNELS 3 Xrotation Yrotation Zrotation
							JOINT LeftShoulder
							{
								OFFSET 3.288150 8.794197 -1.372250
								CHANNELS 3 Xrotation Yrotation Zrotation
								JOINT LeftShoulder_split
								{
									OFFSET 3.288150 8.794197 -1.372250
									CHANNELS 3 Xrotation Yrotation Zrotation
									JOINT LeftArm
									{
										OFFSET 11.953299 -2.279007 -0.146200
										CHANNELS 3 Xrotation Yrotation Zrotation
										JOINT LeftForeArm
										{
											OFFSET 18.448900 0.000000 0.000000
											CHANNELS 3 Xrotation Yrotation Zrotation
											JOINT LeftHand
											{
												OFFSET 29.527798 0.000000 0.000000
												CHANNELS 3 Xrotation Yrotation Zrotation
												End Site
												{
													OFFSET 0 0 0
												}
											}
										}
									}
								}
							}
						}
						JOINT RightShoulder_virtual
						{
							OFFSET 0.000000 0.000000 0.000000
							CHANNELS 3 Xrotation Yrotation Zrotation
							JOINT RightShoulder
							{
								OFFSET -3.249400 8.794197 -1.372250
								CHANNELS 3 Xrotation Yrotation Zrotation
								JOINT RightShoulder_split
								{
									OFFSET -3.249400 8.794197 -1.372250
									CHANNELS 3 Xrotation Yrotation Zrotation
									JOINT RightArm
									{
										OFFSET -11.953299 -2.279007 -0.146200
										CHANNELS 3 Xrotation Yrotation Zrotation
										JOINT RightForeArm
										{
											OFFSET -18.448900 0.000000 0.000000
											CHANNELS 3 Xrotation Yrotation Zrotation
											JOINT RightHand
											{
												OFFSET -29.527802 0.000000 0.000000
												CHANNELS 3 Xrotation Yrotation Zrotation
												End Site
												{
													OFFSET 0 0 0
												}
											}
										}
									}
								}
							}
						}
					}
				}
			}
		}
	}
}
MOTION
Frames: 6
Frame Time: 0.03333333
1.792039 93.360191 -3.094292 0.000000 0.000000 0.000000 -10.367550 -47.668744 -7.682709 -30.935228 -6.232097 16.417073 36.179539 -3.472241 -1.979011 4.829180 -6.340137 -14.037875 -7.517929 -4.399113 3.330612 0.000000 0.000000 0.000000 -9.344827 -41.780513 -6.757559 -9.154855 -16.216935 -11.608984 43.599847 -2.853463 -6.304783 -11.976127 -1.420660 17.133804 2.794946 0.410685 1.276441 0.000000 0.000000 0.000000 -13.429245 -43.057362 -10.075016 7.788744 4.922460 -1.055528 13.582505 9.683234 -4.060232 0.690741 1.669766 0.130642 0.000000 0.000000 0.000000 11.110400 8.781128 -4.368913 -5.919935 -3.392431 3.235574 -12.182745 21.719238 -0.210069 0.000000 0.000000 0.000000 11.873324 9.273959 -4.125277 2.987738 -2.693521 -5.036634 -2.818376 -1.780831 -3.783681 -15.626523 -1.943509 -57.986223 17.223379 -54.047000 8.254023 0.000000 0.000000 0.000000 12.298468 9.347021 -4.142339 1.205538 9.838506 12.189681 0.388410 3.870078 4.443044 4.183267 -19.353375 63.328442 -1.946157 48.463399 3.371233 0.000000 0.000000 0.000000 
1.670316 93.208855 -2.536335 0.000000 0.000000 0.000000 -8.305599 -46.143634 -6.580864 -31.748840 -6.692941 16.673752 35.258427 -2.587856 -1.876695 5.454001 -6.439659 -12.219161 -6.285223 -4.238461 2.838293 0.000000 0.000000 0.000000 -8.220145 -40.297529 -6.374258 -10.265802 -16.623178 -10.519559 43.210133 -2.243090 -7.566954 -11.539774 -1.085286 19.447080 2.245821 0.437746 1.422062 0.000000 0.000000 0.000000 -11.484213 -42.395387 -9.160719 7.783842 5.182881 -0.884050 13.511946 9.711826 -4.109954 -0.037432 0.587357 0.562309 0.000000 0.000000 0.000000 10.779866 8.875530 -4.195690 -5.879491 -3.303609 2.786767 -11.839724 21.996860 -0.007193 0.000000 0.000000 0.000000 11.885292 9.240761 -4.214371 2.991337 -2.629911 -5.313243 -2.747924 -1.464482 -3.497346 -12.521635 -1.454591 -56.936423 18.677834 -56.058498 8.852650 0.000000 0.000000 0.000000 12.245360 9.547117 -3.892618 1.397520 10.057317 11.844384 0.439006 4.810994 2.900500 3.386847 -19.686067 62.188790 -0.781203 49.069435 2.130313 0.000000 0.000000 0.000000 
1.323358 92.557518 -2.595982 0.000000 0.000000 0.000000 -5.126797 -43.266154 -5.239799 -35.590678 -6.526767 17.207236 34.779200 -1.515158 -0.860894 7.683895 -7.487203 -10.334870 -5.702698 -4.097811 2.205684 0.000000 0.000000 0.000000 -5.445019 -36.823838 -5.619104 -12.586194 -17.350697 -8.545613 44.072182 -1.368940 -9.893834 -10.573553 0.148878 21.550638 0.264345 0.603239 0.864800 0.000000 0.000000 0.000000 -8.586346 -40.121726 -8.195518 8.081123 5.146595 -0.845069 13.498467 9.476887 -3.858329 -0.185657 -0.471641 0.983962 0.000000 0.000000 0.000000 10.509778 8.772374 -3.658362 -5.841000 -3.428679 2.038334 -11.103307 22.142488 0.127919 0.000000 0.000000 0.000000 12.001375 8.994788 -4.030075 3.025694 -2.941341 -5.560937 -2.873523 -1.187137 -2.817340 -6.785624 -0.787782 -55.553624 18.706076 -60.949808 7.954893 0.000000 0.000000 0.000000 12.238762 9.573396 -3.338022 1.675681 10.000042 11.040763 0.670563 4.933232 2.108071 3.139187 -18.238917 60.986582 2.499510 50.374124 -1.266206 0.000000 0.000000 0.000000 
0.870752 91.414764 -3.402554 0.000000 0.000000 0.000000 -1.169752 -39.340585 -4.066289 -42.367284 -5.840791 17.991777 35.191614 -0.635923 0.815399 11.133758 -9.680381 -8.801663 -6.431970 -4.012869 2.223447 0.000000 0.000000 0.000000 -1.620034 -32.341062 -4.986584 -16.044162 -18.453184 -5.798874 46.750657 -0.843324 -13.085718 -10.111979 1.646879 22.602774 -2.554112 0.842769 -0.098142 0.000000 0.000000 0.000000 -4.821743 -36.889387 -7.314777 8.495827 4.874997 -0.967504 13.489770 9.027444 -3.386545 0.184865 -1.378365 0.992944 0.000000 0.000000 0.000000 10.414419 8.458189 -2.910838 -5.996734 -3.620711 1.163155 -10.142995 22.264053 0.086820 0.000000 0.000000 0.000000 12.156022 8.617315 -3.622906 3.053765 -3.433789 -5.609610 -2.829922 -1.470319 -1.666407 0.427970 -0.147920 -54.164483 17.410752 -67.783152 5.848850 0.000000 0.000000 0.000000 12.309729 9.400555 -2.643663 1.925746 9.613776 9.937583 1.445878 4.973306 2.028056 3.336253 -15.383903 60.133655 7.638589 52.240688 -6.591861 0.000000 0.000000 0.000000 
0.260048 89.848549 -4.607338 0.000000 0.000000 0.000000 3.208884 -34.837708 -3.334568 -51.044360 -4.966255 18.913612 37.318774 0.083384 2.850952 15.080685 -12.499267 -7.100265 -7.976092 -3.888408 2.925398 0.000000 0.000000 0.000000 2.745013 -27.671181 -4.648056 -20.649352 -20.221583 -2.543413 52.163401 -1.382123 -16.752989 -10.198233 2.853845 22.268923 -5.238227 1.161433 -1.268970 0.000000 0.000000 0.000000 -0.596477 -33.368807 -6.665192 8.884425 4.510642 -1.215875 13.467873 8.430187 -2.821812 0.815229 -1.891271 0.870702 0.000000 0.000000 0.000000 10.600644 7.972730 -2.156675 -6.650935 -3.747541 0.319809 -9.269357 22.477106 -0.058820 0.000000 0.000000 0.000000 12.373233 8.164543 -3.115933 3.088169 -3.839585 -5.326165 -2.346066 -2.387845 -0.567873 7.474894 0.193511 -53.402862 14.898640 -74.829463 2.644283 0.000000 0.000000 0.000000 12.510692 9.012116 -1.997457 2.097687 8.727282 8.594505 2.636122 4.990312 2.186784 3.753770 -11.632668 59.924842 14.193887 54.354171 -13.455264 0.000000 0.000000 0.000000 
-0.363423 87.819672 -6.039864 0.000000 0.000000 0.000000 7.747425 -30.296827 -3.128081 -60.689537 -4.085128 19.745951 40.792270 1.181842 4.699533 18.145055 -15.066532 -4.572233 -8.948984 -3.586963 3.740378 0.000000 0.000000 0.000000 7.489409 -23.244382 -4.548463 -26.899858 -22.772042 0.655155 60.677058 -3.379101 -20.288167 -10.345571 3.736880 21.014573 -7.212778 1.478893 -2.516692 0.000000 0.000000 0.000000 4.103615 -30.458580 -6.040780 9.143950 4.254637 -1.490970 13.433546 7.774977 -2.261271 1.429879 -1.684345 0.776119 0.000000 0.000000 0.000000 11.051769 7.420155 -1.541924 -8.135177 -3.837004 -0.438918 -8.774899 22.870180 -0.245203 0.000000 0.000000 0.000000 12.613130 7.702831 -2.539875 3.115990 -3.809549 -4.546205 -2.018205 -3.508819 0.213736 13.236313 -0.261600 -53.772222 12.091320 -79.923349 -0.667733 0.000000 0.000000 0.000000 12.862353 8.460891 -1.529413 2.236704 7.151695 6.984524 4.028080 4.657927 2.520294 3.642206 -7.940305 60.329893 21.112470 55.843654 -20.867556 0.000000 0.000000 0.000000 
